G04 Layer_Physical_Order=1*
G04 Layer_Color=255*
%FSLAX25Y25*%
%MOIN*%
G70*
G01*
G75*
%ADD10R,0.03543X0.04724*%
%ADD11C,0.02000*%
%ADD12C,0.06693*%
D10*
X17854Y35512D02*
D03*
Y24488D02*
D03*
X12146D02*
D03*
Y35512D02*
D03*
X37854D02*
D03*
Y24488D02*
D03*
X32146D02*
D03*
Y35512D02*
D03*
X57854D02*
D03*
Y24488D02*
D03*
X52146D02*
D03*
Y35512D02*
D03*
D11*
X30000Y21752D02*
X32146Y23898D01*
Y24488D01*
X30000Y10000D02*
Y21752D01*
X37854Y23898D02*
Y24488D01*
X40000Y10000D02*
Y21752D01*
X37854Y23898D02*
X40000Y21752D01*
X50000D02*
X52146Y23898D01*
Y24488D01*
X50000Y10000D02*
Y21752D01*
X57854Y23898D02*
Y24488D01*
X60000Y10000D02*
Y21752D01*
X57854Y23898D02*
X60000Y21752D01*
X50000Y38248D02*
X52146Y36102D01*
Y35512D02*
Y36102D01*
X50000Y38248D02*
Y50000D01*
X57854Y35512D02*
Y36102D01*
X60000Y38248D02*
Y50000D01*
X57854Y36102D02*
X60000Y38248D01*
X37854Y35512D02*
Y36102D01*
X40000Y38248D02*
Y50000D01*
X37854Y36102D02*
X40000Y38248D01*
X30000D02*
X32146Y36102D01*
Y35512D02*
Y36102D01*
X30000Y38248D02*
Y50000D01*
X17854Y35512D02*
Y36102D01*
X20000Y38248D02*
Y50000D01*
X17854Y36102D02*
X20000Y38248D01*
X10000D02*
X12146Y36102D01*
Y35512D02*
Y36102D01*
X10000Y38248D02*
Y50000D01*
X17854Y23898D02*
Y24488D01*
X20000Y10000D02*
Y21752D01*
X17854Y23898D02*
X20000Y21752D01*
X10000D02*
X12146Y23898D01*
Y24488D01*
X10000Y10000D02*
Y21752D01*
D12*
Y50000D02*
D03*
X30000D02*
D03*
X50000D02*
D03*
X20000D02*
D03*
Y10000D02*
D03*
X10000D02*
D03*
X40000Y50000D02*
D03*
Y10000D02*
D03*
X30000D02*
D03*
X60000Y50000D02*
D03*
Y10000D02*
D03*
X50000D02*
D03*
M02*
